<?xml version="1.0" standalone="no"?>
<!DOCTYPE svg PUBLIC "-//W3C//DTD SVG 20010904//EN"
 "http://www.w3.org/TR/2001/REC-SVG-20010904/DTD/svg10.dtd">
<svg version="1.0" xmlns="http://www.w3.org/2000/svg"
 width="424.000000pt" height="246.000000pt" viewBox="0 0 424.000000 246.000000"
 preserveAspectRatio="xMidYMid meet">

<g transform="translate(0.000000,246.000000) scale(0.100000,-0.100000)"
fill="#000000" stroke="none">
<path d="M1950 2453 c0 -6 8 -17 18 -24 16 -13 16 -13 2 6 -8 11 -16 22 -17
24 -2 2 -3 0 -3 -6z"/>
<path d="M2932 2433 c-12 -14 -19 -30 -16 -35 3 -5 1 -7 -4 -6 -5 2 -26 -10
-46 -26 -31 -24 -34 -31 -24 -44 11 -13 11 -14 0 -8 -16 10 -55 -32 -48 -51 3
-7 2 -12 -2 -12 -21 4 -32 -4 -46 -33 -14 -28 -16 -134 -16 -953 0 -508 3
-937 6 -954 6 -29 8 -30 21 -14 12 15 12 13 0 -8 -13 -22 -14 -33 -3 -70 8
-26 15 -37 19 -29 3 10 6 6 6 -8 1 -33 38 -82 62 -82 10 0 19 -7 19 -15 0 -17
36 -39 50 -30 6 3 10 1 10 -5 0 -7 7 -10 15 -6 8 3 15 2 15 -2 0 -14 27 -14
548 -18 l513 -4 32 22 c18 12 62 51 100 87 61 58 67 68 67 104 0 41 -18 63
-126 156 -70 60 -74 61 -404 61 -332 0 -356 4 -388 60 -9 16 -20 30 -24 30 -4
0 -8 363 -8 807 0 561 -4 818 -11 844 -12 40 -90 144 -108 144 -6 0 -10 3 -8
7 1 3 -9 18 -22 32 -20 21 -27 24 -40 13 -14 -10 -14 -10 -3 4 11 14 8 21 -18
43 -42 35 -89 35 -118 -1z"/>
<path d="M1934 2418 c-4 -7 -4 -10 1 -6 4 4 15 2 24 -5 14 -11 14 -10 2 6 -16
20 -18 21 -27 5z"/>
<path d="M1903 2405 c0 -8 4 -12 9 -9 5 3 6 10 3 15 -9 13 -12 11 -12 -6z"/>
<path d="M1986 2411 c-3 -5 1 -14 8 -20 10 -9 16 -9 21 -1 4 6 1 9 -7 8 -7 -2
-12 3 -10 10 2 14 -4 16 -12 3z"/>
<path d="M1836 2388 c3 -5 10 -6 15 -3 13 9 11 12 -6 12 -8 0 -12 -4 -9 -9z"/>
<path d="M2015 2370 c-3 -5 -1 -10 4 -10 6 0 11 5 11 10 0 6 -2 10 -4 10 -3 0
-8 -4 -11 -10z"/>
<path d="M2055 2332 c3 -3 -1 -12 -7 -21 -8 -10 -4 -9 10 3 26 23 26 23 7 23
-8 0 -13 -3 -10 -5z"/>
<path d="M1820 2320 c-9 -6 -10 -10 -3 -10 6 0 15 5 18 10 8 12 4 12 -15 0z"/>
<path d="M2105 2239 c-4 -6 -5 -12 -2 -15 2 -3 7 2 10 11 7 17 1 20 -8 4z"/>
<path d="M2113 2020 c0 -25 2 -35 4 -22 2 12 2 32 0 45 -2 12 -4 2 -4 -23z"/>
<path d="M2058 33 c7 -3 16 -2 19 1 4 3 -2 6 -13 5 -11 0 -14 -3 -6 -6z"/>
</g>
</svg>
